<?xml version="1.0" encoding="UTF-8"?>
<svg id="_レイヤー_2" xmlns="http://www.w3.org/2000/svg" version="1.1" viewBox="0 0 545.4 74">
  <!-- Generator: Adobe Illustrator 29.2.1, SVG Export Plug-In . SVG Version: 2.1.0 Build 116)  -->
  <defs>
    <style>
      .st0 {
        fill: #fff;
      }
    </style>
  </defs>
  <g id="_レイヤー_3">
    <g id="G.U._Coin_Studio">
      <g>
        <path class="st0" d="M133.6,39.5h14.9v18c-2.2,1.6-4.6,2.8-7.1,3.6-2.5.8-5.2,1.1-8,1.1s-6.8-.6-9.7-1.7-5.4-2.7-7.4-4.6c-2.1-2-3.7-4.3-4.8-7-1.1-2.7-1.7-5.7-1.7-8.9s.5-6.2,1.6-9c1.1-2.7,2.6-5.1,4.6-7,2-2,4.4-3.5,7.2-4.6,2.8-1.1,6-1.6,9.4-1.6s3.5.1,5,.4c1.6.3,3,.7,4.3,1.2s2.5,1.1,3.6,1.8c1.1.7,2.1,1.5,3,2.3l-2.6,4c-.4.6-.9,1-1.6,1.2s-1.3,0-2.1-.5c-.7-.4-1.4-.8-2.1-1.2-.7-.4-1.4-.6-2.2-.9-.8-.3-1.6-.5-2.6-.6-.9-.1-2-.2-3.2-.2-2,0-3.9.4-5.5,1-1.6.7-3,1.7-4.2,3-1.2,1.3-2,2.8-2.7,4.6s-.9,3.8-.9,6,.3,4.5,1,6.4,1.6,3.5,2.9,4.8,2.7,2.3,4.5,3c1.7.7,3.7,1,5.8,1s2.7-.2,3.9-.4c1.1-.3,2.2-.7,3.3-1.2v-7.3h-4.9c-.6,0-1-.2-1.4-.5-.3-.3-.5-.7-.5-1.2v-5h0Z"/>
        <path class="st0" d="M153.6,57.3c0-.7.1-1.3.4-1.9.2-.6.6-1.1,1-1.5.4-.4.9-.8,1.5-1s1.2-.4,1.9-.4,1.3.1,1.9.4,1.1.6,1.6,1,.8.9,1,1.5.4,1.2.4,1.9-.1,1.3-.4,1.9-.6,1.1-1,1.5c-.4.4-1,.8-1.6,1-.6.2-1.2.4-1.9.4s-1.4-.1-1.9-.4-1.1-.6-1.5-1c-.4-.4-.8-.9-1-1.5s-.4-1.2-.4-1.9Z"/>
        <path class="st0" d="M187,54.5c1.5,0,2.8-.2,3.9-.7,1.2-.5,2.1-1.2,2.9-2.1.8-.9,1.4-2,1.8-3.3s.6-2.7.6-4.3v-25.9h9v25.9c0,2.6-.4,5.1-1.3,7.3-.9,2.2-2.1,4.1-3.6,5.7-1.6,1.6-3.5,2.8-5.8,3.8s-4.8,1.3-7.6,1.3-5.4-.5-7.7-1.3-4.2-2.2-5.8-3.8c-1.6-1.6-2.8-3.5-3.6-5.7s-1.3-4.6-1.3-7.3v-25.9h9v25.9c0,1.6.2,3,.6,4.3s1,2.4,1.8,3.3,1.8,1.6,2.9,2.1c1.2.5,2.5.7,4,.7h0Z"/>
        <path class="st0" d="M210.6,57.3c0-.7.1-1.3.4-1.9.2-.6.6-1.1,1-1.5.4-.4.9-.8,1.5-1s1.2-.4,1.9-.4,1.3.1,1.9.4,1.1.6,1.6,1,.8.9,1,1.5.4,1.2.4,1.9-.1,1.3-.4,1.9-.6,1.1-1,1.5c-.4.4-1,.8-1.6,1-.6.2-1.2.4-1.9.4s-1.4-.1-1.9-.4-1.1-.6-1.5-1c-.4-.4-.8-.9-1-1.5s-.4-1.2-.4-1.9Z"/>
        <path class="st0" d="M271.1,51c.5,0,.9.2,1.3.5l3.6,3.8c-1.8,2.2-3.9,3.9-6.5,5.1s-5.7,1.7-9.3,1.7-6.2-.6-8.8-1.7c-2.6-1.1-4.8-2.7-6.6-4.6s-3.2-4.3-4.2-7c-1-2.7-1.5-5.7-1.5-8.9s.2-4.2.7-6.2c.5-2,1.2-3.8,2.1-5.4s2-3.1,3.2-4.4c1.3-1.3,2.7-2.4,4.3-3.4,1.6-.9,3.3-1.6,5.2-2.1,1.9-.5,3.9-.7,6-.7s3.1.1,4.5.4c1.4.3,2.8.7,4,1.2,1.2.5,2.4,1.1,3.4,1.8,1,.7,2,1.5,2.8,2.3l-3,4.1c-.2.3-.4.5-.7.7s-.7.3-1.1.3-1-.2-1.5-.5c-.5-.3-1.1-.7-1.8-1.1s-1.6-.8-2.7-1.1-2.4-.5-4.1-.5-3.5.3-5,1-2.8,1.6-3.9,2.9c-1.1,1.2-1.9,2.8-2.5,4.6-.6,1.8-.9,3.9-.9,6.2s.3,4.4,1,6.2,1.5,3.4,2.7,4.6c1.1,1.3,2.4,2.2,4,2.9,1.5.6,3.1,1,4.8,1s1.9,0,2.8-.2c.8,0,1.6-.3,2.3-.5.7-.2,1.4-.5,2-.9s1.3-.9,1.9-1.4c.2-.2.5-.3.7-.5s.5-.2.8-.2h0Z"/>
        <path class="st0" d="M293.1,30.2c2.3,0,4.4.4,6.3,1.1,1.9.7,3.5,1.8,4.9,3.2,1.4,1.4,2.4,3,3.1,5,.7,2,1.1,4.2,1.1,6.6s-.4,4.7-1.1,6.6c-.7,2-1.8,3.7-3.1,5-1.4,1.4-3,2.4-4.9,3.2-1.9.7-4,1.1-6.3,1.1s-4.5-.4-6.4-1.1-3.5-1.8-4.9-3.2c-1.4-1.4-2.4-3.1-3.2-5-.8-2-1.1-4.2-1.1-6.6s.4-4.7,1.1-6.6c.8-2,1.8-3.6,3.2-5,1.4-1.4,3-2.4,4.9-3.2s4-1.1,6.4-1.1ZM293.1,55.9c2.4,0,4.1-.8,5.2-2.5,1.1-1.6,1.7-4,1.7-7.3s-.6-5.6-1.7-7.2c-1.1-1.6-2.9-2.4-5.2-2.4s-4.2.8-5.3,2.4c-1.1,1.6-1.7,4-1.7,7.2s.6,5.7,1.7,7.3c1.1,1.6,2.9,2.5,5.3,2.5Z"/>
        <path class="st0" d="M323.4,21.9c0,.7-.1,1.4-.4,2s-.7,1.1-1.1,1.6c-.5.5-1,.8-1.6,1.1s-1.3.4-2,.4-1.3-.1-1.9-.4c-.6-.3-1.1-.6-1.6-1.1-.5-.5-.8-1-1.1-1.6s-.4-1.2-.4-2,.1-1.4.4-2,.6-1.1,1.1-1.6,1-.8,1.6-1.1c.6-.3,1.2-.4,1.9-.4s1.4.1,2,.4c.6.3,1.2.6,1.6,1.1s.8,1,1.1,1.6c.3.6.4,1.3.4,2ZM322.4,30.7v30.9h-8.3v-30.9h8.3Z"/>
        <path class="st0" d="M337.1,34.3c.6-.6,1.3-1.2,1.9-1.7.7-.5,1.4-.9,2.1-1.3s1.6-.6,2.4-.8,1.8-.3,2.8-.3c1.7,0,3.2.3,4.5.9s2.4,1.4,3.3,2.4c.9,1,1.6,2.3,2,3.7.5,1.4.7,3,.7,4.7v19.7h-8.2v-19.7c0-1.7-.4-3.1-1.2-4-.8-1-2-1.4-3.5-1.4s-2.2.2-3.3.8-2,1.2-2.9,2.1v22.2h-8.3v-30.9h5.1c1,0,1.7.5,2.1,1.4l.5,2.2h0Z"/>
        <path class="st0" d="M402.4,26.5c-.3.5-.6.8-.9,1-.3.2-.7.3-1.1.3s-.9-.1-1.4-.5c-.5-.3-1.1-.6-1.8-1-.7-.4-1.5-.7-2.3-1-.9-.3-1.9-.5-3.1-.5-2.1,0-3.6.5-4.7,1.4s-1.6,2.1-1.6,3.6.3,1.8.9,2.4c.6.6,1.3,1.2,2.2,1.6.9.5,2,.9,3.2,1.2s2.4.8,3.6,1.2,2.5.9,3.6,1.5,2.2,1.3,3.2,2.2c.9.9,1.7,2,2.2,3.2s.9,2.8.9,4.6-.4,3.8-1,5.6c-.7,1.7-1.7,3.2-3,4.5-1.3,1.3-2.9,2.3-4.8,3-1.9.7-4.1,1.1-6.5,1.1s-2.8-.1-4.1-.4c-1.4-.3-2.7-.7-4-1.2s-2.5-1.1-3.6-1.8c-1.1-.7-2.1-1.5-2.9-2.3l2.6-4.3c.2-.3.5-.6.9-.8s.7-.3,1.1-.3,1.1.2,1.7.6c.6.4,1.3.8,2.1,1.3s1.7.9,2.7,1.3,2.3.6,3.7.6c2.1,0,3.7-.5,4.9-1.4,1.1-1,1.7-2.4,1.7-4.3s-.3-2-.9-2.7-1.3-1.2-2.2-1.7-2-.8-3.1-1.2c-1.2-.3-2.4-.7-3.6-1.1s-2.5-.9-3.6-1.4-2.2-1.3-3.1-2.2c-.9-.9-1.7-2.1-2.2-3.4-.6-1.4-.9-3-.9-5.1s.3-3.2,1-4.7c.6-1.5,1.6-2.9,2.8-4,1.2-1.2,2.8-2.1,4.6-2.9,1.8-.7,3.9-1.1,6.2-1.1s5,.4,7.3,1.2c2.2.8,4.1,1.9,5.6,3.4l-2.2,4.2h0Z"/>
        <path class="st0" d="M420.1,62.1c-1.4,0-2.6-.2-3.7-.6-1.1-.4-2-1-2.7-1.8-.7-.8-1.3-1.7-1.7-2.8-.4-1.1-.6-2.3-.6-3.7v-16.7h-2.9c-.4,0-.8-.1-1.1-.4-.3-.3-.5-.7-.5-1.3v-3.2l5-.9,1.7-8c.2-.9.8-1.4,1.8-1.4h4.3v9.4h8v5.8h-8v16.1c0,.9.2,1.5.6,2,.4.5,1,.8,1.8.8s.7,0,1-.1.5-.2.7-.3.4-.2.6-.3c.2,0,.3-.1.5-.1s.4,0,.6.2c.2.1.3.3.5.6l2.5,4c-1.1.9-2.4,1.6-3.9,2s-2.9.7-4.5.7h0Z"/>
        <path class="st0" d="M459.2,30.7v30.9h-5.1c-1.1,0-1.7-.5-2-1.4l-.5-2.2c-.6.6-1.3,1.2-1.9,1.7s-1.4.9-2.1,1.3-1.6.6-2.4.8-1.8.3-2.8.3c-1.7,0-3.2-.3-4.5-.9-1.3-.6-2.4-1.4-3.3-2.4s-1.5-2.3-2-3.7c-.5-1.4-.7-3-.7-4.7v-19.6h8.3v19.6c0,1.7.4,3.1,1.2,4,.8,1,2,1.4,3.5,1.4s2.2-.2,3.3-.8c1-.5,2-1.2,2.9-2.1v-22.2h8.3Z"/>
        <path class="st0" d="M493.5,16.9v44.7h-5.1c-1.1,0-1.7-.5-2-1.4l-.7-2.7c-.6.7-1.3,1.3-2,1.9s-1.4,1-2.2,1.5-1.7.7-2.6,1c-.9.2-1.9.3-3,.3-1.7,0-3.2-.3-4.6-1s-2.6-1.7-3.6-3.1c-1-1.3-1.8-3-2.4-5-.6-2-.8-4.2-.8-6.7s.3-4.4,1-6.4c.6-2,1.5-3.7,2.7-5.1,1.2-1.4,2.6-2.6,4.2-3.4s3.5-1.2,5.5-1.2,3.1.2,4.2.8c1.1.5,2.2,1.2,3.1,2v-16h8.3,0ZM485.2,38.8c-.8-.9-1.6-1.5-2.5-1.9s-1.9-.5-2.9-.5-1.9.2-2.7.6-1.5,1-2.1,1.8-1,1.8-1.4,3.1c-.3,1.3-.5,2.8-.5,4.5s.1,3.2.4,4.4.6,2.2,1.1,2.9,1.1,1.3,1.8,1.6c.7.3,1.5.5,2.3.5,1.5,0,2.7-.3,3.7-.9,1-.6,1.9-1.4,2.8-2.5v-13.6h0Z"/>
        <path class="st0" d="M509.9,21.9c0,.7-.1,1.4-.4,2s-.7,1.1-1.1,1.6c-.5.5-1,.8-1.6,1.1s-1.3.4-2,.4-1.3-.1-1.9-.4c-.6-.3-1.1-.6-1.6-1.1-.5-.5-.8-1-1.1-1.6s-.4-1.2-.4-2,.1-1.4.4-2,.6-1.1,1.1-1.6,1-.8,1.6-1.1c.6-.3,1.2-.4,1.9-.4s1.4.1,2,.4c.6.3,1.2.6,1.6,1.1s.8,1,1.1,1.6c.3.6.4,1.3.4,2ZM508.9,30.7v30.9h-8.3v-30.9h8.3Z"/>
        <path class="st0" d="M529.9,30.2c2.3,0,4.4.4,6.3,1.1,1.9.7,3.5,1.8,4.9,3.2,1.4,1.4,2.4,3,3.2,5,.7,2,1.1,4.2,1.1,6.6s-.4,4.7-1.1,6.6c-.7,2-1.8,3.7-3.2,5-1.4,1.4-3,2.4-4.9,3.2s-4,1.1-6.3,1.1-4.5-.4-6.4-1.1c-1.9-.7-3.5-1.8-4.9-3.2s-2.4-3.1-3.2-5c-.8-2-1.1-4.2-1.1-6.6s.4-4.7,1.1-6.6c.8-2,1.8-3.6,3.2-5,1.4-1.4,3-2.4,4.9-3.2s4-1.1,6.4-1.1ZM529.9,55.9c2.4,0,4.1-.8,5.2-2.5,1.1-1.6,1.7-4,1.7-7.3s-.6-5.6-1.7-7.2c-1.1-1.6-2.9-2.4-5.2-2.4s-4.2.8-5.3,2.4c-1.1,1.6-1.7,4-1.7,7.2s.6,5.7,1.7,7.3c1.1,1.6,2.9,2.5,5.3,2.5Z"/>
      </g>
      <g id="_浅葱色_あさぎいろ">
        <path class="st0" d="M86.1,12.9L63.4,0l-20.1,11.7L22.7,0,0,12.9v26.2l20.2,11.8v9.8l22.7,13.2,22.7-13.2v-9.4l20.5-11.9V12.9h0ZM60.6,45.2l-14.9-8.7v-7.7l14.9,8.7v7.7ZM5.1,36.2V15.9L22.7,5.8l17.7,10.1v6.9l-20.2,11.8v10.5l-15.1-8.8h0ZM40.4,28.6v7.6l-15.1,8.8v-7.6l15.1-8.8ZM42.9,68.1l-17.7-10.3v-6.9l17.6-10.2,17.8,10.4v6.8l-17.7,10.3h0ZM81,36.5l-15.4,9v-11l-19.9-11.6v-6.8l17.7-10.3,17.6,10.1v20.6h0Z"/>
      </g>
    </g>
  </g>
</svg>