<svg width="172" height="111" viewBox="0 0 172 111" fill="none" xmlns="http://www.w3.org/2000/svg">
<path d="M119.9 64.0723C118.757 64.747 117.44 65.3976 115.949 66.0241C114.459 66.6506 112.819 67.1325 111.03 67.4699C109.241 67.8554 107.303 68.0482 105.216 68.0482C101.192 68.0482 97.5394 67.3735 94.2599 66.0241C90.9803 64.6265 88.1729 62.747 85.8375 60.3855C83.5021 57.9759 81.6884 55.2289 80.3965 52.1446C79.1543 49.012 78.5331 45.6868 78.5331 42.1687C78.5331 38.4096 79.204 34.9157 80.5456 31.6868C81.8872 28.4578 83.7754 25.6386 86.2102 23.2289C88.6449 20.8193 91.4772 18.9398 94.7071 17.5904C97.9369 16.241 101.44 15.5663 105.216 15.5663C107.999 15.5663 110.608 15.9277 113.042 16.6506C115.477 17.3735 117.688 18.3133 119.676 19.4699L118.111 22.7229C116.372 21.6627 114.409 20.7711 112.223 20.0482C110.036 19.3253 107.726 18.9639 105.291 18.9639C102.16 18.9639 99.2039 19.5663 96.4213 20.7711C93.6387 21.9277 91.1791 23.5663 89.0425 25.6868C86.9555 27.759 85.3158 30.1928 84.1232 32.988C82.9307 35.7831 82.3344 38.7952 82.3344 42.0241C82.3344 45.1084 82.8561 48.0241 83.8996 50.7711C84.9928 53.5181 86.5331 55.9277 88.5207 58C90.558 60.0723 92.9928 61.7108 95.8251 62.9157C98.6574 64.0723 101.813 64.6506 105.291 64.6506C107.875 64.6506 110.235 64.3133 112.372 63.6386C114.558 62.9157 116.496 62.0241 118.185 60.9639L119.9 64.0723Z" fill="black"/>
<path d="M52.559 41.8795C52.559 38.2651 53.2547 34.8916 54.646 31.759C56.0373 28.5783 57.9752 25.7831 60.4596 23.3735C62.9441 20.9157 65.8013 19.0121 69.0311 17.6627C72.3106 16.2651 75.8137 15.5663 79.5404 15.5663C83.2671 15.5663 86.7702 16.2651 90.0497 17.6627C93.3292 19.0121 96.2112 20.9157 98.6957 23.3735C101.18 25.7831 103.118 28.5783 104.509 31.759C105.95 34.8916 106.671 38.2651 106.671 41.8795C106.671 45.494 105.95 48.8916 104.509 52.0723C103.118 55.2048 101.18 57.9759 98.6957 60.3855C96.2112 62.7952 93.3292 64.6747 90.0497 66.0241C86.7702 67.3735 83.2671 68.0482 79.5404 68.0482C75.8137 68.0482 72.3106 67.3976 69.0311 66.0964C65.8013 64.7952 62.9441 62.9639 60.4596 60.6024C57.9752 58.241 56.0373 55.4699 54.646 52.2892C53.2547 49.1084 52.559 45.6386 52.559 41.8795ZM56.2857 41.9518C56.2857 45.0843 56.882 48.0241 58.0745 50.7711C59.2671 53.5181 60.9317 55.9277 63.0683 58C65.205 60.0723 67.6646 61.7108 70.4472 62.9157C73.2795 64.0723 76.2857 64.6506 79.4659 64.6506C82.7454 64.6506 85.8013 64.0723 88.6336 62.9157C91.4659 61.7108 93.9503 60.0723 96.087 58C98.2236 55.9277 99.8882 53.5181 101.081 50.7711C102.323 48.0241 102.944 45.0602 102.944 41.8795C102.944 38.747 102.323 35.8072 101.081 33.0602C99.8882 30.2651 98.2236 27.8313 96.087 25.759C93.9503 23.6386 91.4659 21.9759 88.6336 20.7711C85.8013 19.5663 82.7702 18.9639 79.5404 18.9639C76.2609 18.9639 73.205 19.5904 70.3727 20.8434C67.5404 22.0482 65.0559 23.7108 62.9193 25.8313C60.8323 27.9518 59.1926 30.4096 58 33.2048C56.8572 35.9518 56.2857 38.8675 56.2857 41.9518Z" fill="#CB0808"/>
<path d="M71.197 52.0241C71.197 55.8313 70.4765 59.0843 69.0355 61.7831C67.5946 64.4819 65.6567 66.5301 63.2219 67.9277C60.8368 69.3735 58.1287 70.1446 55.0977 70.241V66.8434C58.6753 66.6506 61.6318 65.2771 63.9672 62.7229C66.3523 60.1687 67.5449 56.5301 67.5449 51.8072V8.43373H71.197V52.0241Z" fill="black"/>
<mask id="mask0_0_1" style="mask-type:alpha" maskUnits="userSpaceOnUse" x="84" y="56" width="17" height="14">
<path d="M84.0125 56.3855H100.41V69.3976H84.0125V56.3855Z" fill="white"/>
</mask>
<g mask="url(#mask0_0_1)">
<path d="M119.9 64.0723C118.757 64.747 117.44 65.3976 115.949 66.0241C114.459 66.6506 112.819 67.1325 111.03 67.4699C109.241 67.8554 107.303 68.0482 105.216 68.0482C101.192 68.0482 97.5394 67.3735 94.2599 66.0241C90.9803 64.6265 88.1729 62.747 85.8375 60.3855C83.5021 57.9759 81.6884 55.2289 80.3965 52.1446C79.1543 49.012 78.5331 45.6868 78.5331 42.1687C78.5331 38.4096 79.204 34.9157 80.5456 31.6868C81.8872 28.4578 83.7754 25.6386 86.2102 23.2289C88.6449 20.8193 91.4772 18.9398 94.7071 17.5904C97.9369 16.241 101.44 15.5663 105.216 15.5663C107.999 15.5663 110.608 15.9277 113.042 16.6506C115.477 17.3735 117.688 18.3133 119.676 19.4699L118.111 22.7229C116.372 21.6627 114.409 20.7711 112.223 20.0482C110.036 19.3253 107.726 18.9639 105.291 18.9639C102.16 18.9639 99.2039 19.5663 96.4213 20.7711C93.6387 21.9277 91.1791 23.5663 89.0425 25.6868C86.9555 27.759 85.3158 30.1928 84.1232 32.988C82.9307 35.7831 82.3344 38.7952 82.3344 42.0241C82.3344 45.1084 82.8561 48.0241 83.8996 50.7711C84.9928 53.5181 86.5331 55.9277 88.5207 58C90.558 60.0723 92.9928 61.7108 95.8251 62.9157C98.6574 64.0723 101.813 64.6506 105.291 64.6506C107.875 64.6506 110.235 64.3133 112.372 63.6386C114.558 62.9157 116.496 62.0241 118.185 60.9639L119.9 64.0723Z" fill="black"/>
</g>
<mask id="mask1_0_1" style="mask-type:alpha" maskUnits="userSpaceOnUse" x="59" y="56" width="15" height="14">
<path d="M59.1677 56.3855H73.5777V69.3976H59.1677V56.3855Z" fill="white"/>
</mask>
<g mask="url(#mask1_0_1)">
<path d="M52.559 41.8795C52.559 38.2651 53.2547 34.8916 54.646 31.759C56.0373 28.5783 57.9752 25.7831 60.4596 23.3735C62.9441 20.9157 65.8013 19.0121 69.0311 17.6627C72.3106 16.2651 75.8137 15.5663 79.5404 15.5663C83.2671 15.5663 86.7702 16.2651 90.0497 17.6627C93.3292 19.0121 96.2112 20.9157 98.6957 23.3735C101.18 25.7831 103.118 28.5783 104.509 31.759C105.95 34.8916 106.671 38.2651 106.671 41.8795C106.671 45.494 105.95 48.8916 104.509 52.0723C103.118 55.2048 101.18 57.9759 98.6957 60.3855C96.2112 62.7952 93.3292 64.6747 90.0497 66.0241C86.7702 67.3735 83.2671 68.0482 79.5404 68.0482C75.8137 68.0482 72.3106 67.3976 69.0311 66.0964C65.8013 64.7952 62.9441 62.9639 60.4596 60.6024C57.9752 58.241 56.0373 55.4699 54.646 52.2892C53.2547 49.1084 52.559 45.6386 52.559 41.8795ZM56.2857 41.9518C56.2857 45.0843 56.882 48.0241 58.0745 50.7711C59.2671 53.5181 60.9317 55.9277 63.0683 58C65.205 60.0723 67.6646 61.7108 70.4472 62.9157C73.2795 64.0723 76.2857 64.6506 79.4659 64.6506C82.7454 64.6506 85.8013 64.0723 88.6336 62.9157C91.4659 61.7108 93.9503 60.0723 96.087 58C98.2236 55.9277 99.8882 53.5181 101.081 50.7711C102.323 48.0241 102.944 45.0602 102.944 41.8795C102.944 38.747 102.323 35.8072 101.081 33.0602C99.8882 30.2651 98.2236 27.8313 96.087 25.759C93.9503 23.6386 91.4659 21.9759 88.6336 20.7711C85.8013 19.5663 82.7702 18.9639 79.5404 18.9639C76.2609 18.9639 73.205 19.5904 70.3727 20.8434C67.5404 22.0482 65.0559 23.7108 62.9193 25.8313C60.8323 27.9518 59.1926 30.4096 58 33.2048C56.8572 35.9518 56.2857 38.8675 56.2857 41.9518Z" fill="#CB0808"/>
</g>
<path d="M10.4282 103.501C10.4282 104.363 10.2618 105.097 9.92874 105.705C9.60553 106.312 9.1599 106.772 8.59183 107.086C8.02376 107.409 7.37245 107.585 6.63788 107.614V106.234C7.32348 106.194 7.88664 105.95 8.32738 105.499C8.77792 105.058 9.00319 104.377 9.00319 103.457V94.8036H10.4282V103.501ZM13.1247 105.425L17.7672 94.3629H17.8553L22.4831 105.425H20.8524L17.3852 96.596L18.3989 95.9349L14.5204 105.425H13.1247ZM15.8426 101.4H19.7946L20.2647 102.634H15.4312L15.8426 101.4ZM28.2005 94.8036C28.9743 94.8036 29.6354 94.9358 30.1839 95.2003C30.7323 95.4549 31.1535 95.8271 31.4473 96.3168C31.751 96.8065 31.9028 97.3991 31.9028 98.0945C31.9028 98.5156 31.8391 98.9319 31.7118 99.3433C31.5844 99.7448 31.3787 100.112 31.0947 100.445C30.8204 100.768 30.4582 101.028 30.0076 101.224C29.557 101.42 29.0086 101.518 28.3621 101.518H26.7902V105.425H25.3651V94.8036H28.2005ZM28.3474 100.151C28.7686 100.151 29.1162 100.083 29.3905 99.9456C29.6648 99.8085 29.8802 99.6371 30.037 99.4314C30.1937 99.2159 30.3062 98.9907 30.3749 98.7556C30.4435 98.5205 30.4777 98.31 30.4777 98.1239C30.4777 97.9084 30.4435 97.688 30.3749 97.4628C30.3062 97.2277 30.1887 97.0171 30.0223 96.831C29.8655 96.6352 29.655 96.4784 29.3905 96.3609C29.1359 96.2336 28.8176 96.1699 28.4356 96.1699H26.7902V100.151H28.3474ZM32.9075 105.425L37.55 94.3629H37.6381L42.2659 105.425H40.6352L37.168 96.596L38.1817 95.9349L34.3032 105.425H32.9075ZM35.6254 101.4H39.5774L40.0475 102.634H35.214L35.6254 101.4ZM54.3447 105.763L46.1322 97.4334L46.5436 97.5362L46.573 105.425H45.1479V94.4804H45.2214L53.3457 102.84L53.0078 102.766L52.9784 94.8036H54.3888V105.763H54.3447ZM80.1684 94.8036C80.9421 94.8036 81.6032 94.9358 82.1518 95.2003C82.7002 95.4549 83.1214 95.8271 83.4152 96.3168C83.7187 96.8065 83.8707 97.3991 83.8707 98.0945C83.8707 98.5156 83.8069 98.9319 83.6797 99.3433C83.5523 99.7448 83.3466 100.112 83.0626 100.445C82.7883 100.768 82.4259 101.028 81.9755 101.224C81.5249 101.42 80.9764 101.518 80.33 101.518H78.7581V105.425H77.333V94.8036H80.1684ZM80.3153 100.151C80.7364 100.151 81.0841 100.083 81.3584 99.9456C81.6326 99.8085 81.8481 99.6371 82.0048 99.4314C82.1615 99.2159 82.2741 98.9907 82.3427 98.7556C82.4112 98.5205 82.4456 98.31 82.4456 98.1239C82.4456 97.9084 82.4112 97.688 82.3427 97.4628C82.2741 97.2277 82.1566 97.0171 81.9902 96.831C81.8334 96.6352 81.6229 96.4784 81.3584 96.3609C81.1037 96.2336 80.7855 96.1699 80.4035 96.1699H78.7581V100.151H80.3153ZM86.9517 94.8036H93.8567V96.1699H88.3768V99.402H93.269V100.768H88.3768V104.059H94.0623V105.425H86.9517V94.8036ZM106.614 105.763L98.4014 97.4334L98.8128 97.5362L98.8422 105.425H97.4171V94.4804H97.4906L105.615 102.84L105.277 102.766L105.248 94.8036H106.658V105.763H106.614ZM123.925 104.632C123.749 104.75 123.509 104.882 123.205 105.029C122.901 105.176 122.544 105.298 122.133 105.396C121.731 105.494 121.29 105.543 120.81 105.543C119.988 105.533 119.243 105.386 118.577 105.102C117.921 104.818 117.363 104.431 116.903 103.942C116.442 103.452 116.085 102.889 115.83 102.252C115.585 101.606 115.463 100.92 115.463 100.195C115.463 99.402 115.59 98.6723 115.845 98.0063C116.109 97.3305 116.477 96.7478 116.947 96.2581C117.417 95.7586 117.97 95.3717 118.607 95.0975C119.253 94.8232 119.958 94.6861 120.722 94.6861C121.359 94.6861 121.937 94.7742 122.456 94.9505C122.975 95.117 123.421 95.3178 123.793 95.5529L123.22 96.8751C122.926 96.6792 122.568 96.4931 122.147 96.3168C121.736 96.1405 121.276 96.0524 120.766 96.0524C120.247 96.0524 119.758 96.1552 119.297 96.3609C118.837 96.5666 118.43 96.8555 118.078 97.2277C117.725 97.5999 117.446 98.0357 117.24 98.5352C117.044 99.0249 116.947 99.5538 116.947 100.122C116.947 100.7 117.035 101.238 117.211 101.738C117.397 102.228 117.657 102.654 117.99 103.016C118.332 103.378 118.744 103.663 119.224 103.868C119.704 104.074 120.242 104.177 120.84 104.177C121.378 104.177 121.858 104.093 122.28 103.927C122.701 103.76 123.048 103.574 123.323 103.369L123.925 104.632ZM135.609 94.8036V105.425H134.199V100.768H128.631V105.425H127.206V94.8036H128.631V99.4167H134.199V94.8036H135.609ZM138.493 105.425L143.136 94.3629H143.224L147.851 105.425H146.221L142.754 96.596L143.767 95.9349L139.889 105.425H138.493ZM141.211 101.4H145.163L145.633 102.634H140.8L141.211 101.4ZM150.734 94.8036H152.159V105.425H150.734V94.8036ZM165.288 105.763L157.076 97.4334L157.487 97.5362L157.517 105.425H156.092V94.4804H156.165L164.289 102.84L163.951 102.766L163.922 94.8036H165.332V105.763H165.288Z" fill="black"/>
<path d="M63.1927 100.123C63.1927 99.3884 63.33 98.6979 63.6041 98.0515C63.8882 97.3953 64.2799 96.8174 64.7794 96.3179C65.2789 95.8086 65.8519 95.4119 66.4983 95.1279C67.1546 94.8341 67.8598 94.6872 68.6139 94.6872C69.3583 94.6872 70.0536 94.8341 70.7 95.1279C71.3563 95.4119 71.9341 95.8086 72.4336 96.3179C72.943 96.8174 73.3396 97.3953 73.6236 98.0515C73.9077 98.6979 74.0497 99.3884 74.0497 100.123C74.0497 100.877 73.9077 101.582 73.6236 102.239C73.3396 102.895 72.943 103.473 72.4336 103.972C71.9341 104.462 71.3563 104.849 70.7 105.133C70.0536 105.407 69.3583 105.544 68.6139 105.544C67.8598 105.544 67.1546 105.407 66.4983 105.133C65.8519 104.858 65.2789 104.477 64.7794 103.987C64.2799 103.497 63.8882 102.924 63.6041 102.268C63.33 101.612 63.1927 100.897 63.1927 100.123ZM64.6619 100.138C64.6619 100.696 64.7647 101.22 64.9704 101.71C65.1761 102.19 65.4602 102.616 65.8225 102.988C66.1849 103.36 66.6061 103.654 67.086 103.869C67.5659 104.075 68.085 104.178 68.6432 104.178C69.1918 104.178 69.706 104.075 70.1858 103.869C70.6658 103.654 71.082 103.36 71.4346 102.988C71.7872 102.616 72.0663 102.19 72.272 101.71C72.4777 101.22 72.5805 100.691 72.5805 100.123C72.5805 99.5647 72.4777 99.0407 72.272 98.551C72.0663 98.0515 71.7823 97.6157 71.4199 97.2435C71.0576 96.8713 70.6364 96.5824 70.1565 96.3767C69.6766 96.1612 69.1624 96.0535 68.6139 96.0535C68.0556 96.0535 67.5365 96.1612 67.0566 96.3767C66.5768 96.5922 66.1556 96.886 65.7931 97.2582C65.4308 97.6303 65.1517 98.0662 64.9557 98.5657C64.7599 99.0554 64.6619 99.5794 64.6619 100.138Z" fill="#CB0808"/>
</svg>
